<?xml version="1.0" standalone="no"?>
<!DOCTYPE svg PUBLIC "-//W3C//DTD SVG 20010904//EN"
 "http://www.w3.org/TR/2001/REC-SVG-20010904/DTD/svg10.dtd">
<svg version="1.0" xmlns="http://www.w3.org/2000/svg"
 width="512.000000pt" height="512.000000pt" viewBox="0 0 512.000000 512.000000"
 preserveAspectRatio="xMidYMid meet">
<metadata>
Created by potrace 1.16, written by Peter Selinger 2001-2019
</metadata>
<g transform="translate(0.000000,512.000000) scale(0.100000,-0.100000)"
fill="#000000" stroke="none">
<path d="M0 2560 l0 -2560 2560 0 2560 0 0 2560 0 2560 -2560 0 -2560 0 0
-2560z m2328 1130 c80 -13 152 -41 226 -85 l58 -35 72 34 c196 95 481 119 708
61 83 -22 193 -75 243 -118 l40 -35 47 34 c59 44 174 97 258 119 99 26 326 32
431 11 131 -26 251 -89 330 -173 122 -130 170 -259 170 -461 0 -217 -39 -409
-137 -679 -147 -406 -331 -662 -564 -782 -140 -73 -201 -86 -400 -86 -138 0
-189 4 -240 18 -98 27 -202 82 -266 141 l-58 52 -71 -50 c-277 -199 -676 -228
-931 -67 l-59 37 -80 -42 c-239 -127 -593 -129 -798 -3 l-48 30 -72 -36 c-213
-104 -506 -112 -697 -18 -87 42 -180 130 -222 209 -88 164 -76 400 38 754 107
333 291 735 420 916 140 197 365 285 623 243 93 -15 156 -45 201 -96 l39 -45
46 32 c87 60 208 102 340 120 89 11 281 11 353 0z"/>
<path d="M1927 3550 c-138 -29 -226 -76 -319 -170 l-78 -79 0 37 c0 21 -12 61
-26 90 -49 98 -149 138 -326 130 -88 -4 -106 -9 -172 -42 -133 -65 -218 -183
-371 -514 -249 -539 -347 -940 -276 -1125 42 -108 120 -185 228 -228 46 -18
84 -23 180 -27 194 -7 308 21 430 105 l65 44 27 -24 c106 -97 268 -146 446
-134 165 11 319 66 404 142 21 19 42 35 46 35 4 0 30 -20 57 -45 101 -95 250
-141 432 -132 214 10 393 92 546 250 25 26 47 47 50 47 3 0 18 -25 34 -55 99
-189 353 -280 641 -230 306 54 505 261 680 708 128 329 185 631 151 815 -38
213 -158 344 -366 399 -89 23 -289 23 -385 -1 -110 -28 -225 -89 -304 -162
l-69 -64 -22 34 c-52 85 -164 159 -290 193 -91 24 -359 25 -445 1 -104 -29
-169 -57 -236 -102 l-65 -43 -31 36 c-39 46 -131 96 -214 116 -92 21 -309 19
-422 -5z m433 -157 c54 -24 105 -79 115 -123 12 -54 -13 -128 -59 -175 -63
-65 -130 -86 -299 -92 l-138 -6 -38 -76 c-63 -125 -67 -117 48 -113 114 4 168
-8 204 -43 33 -33 38 -67 21 -132 -24 -91 -82 -157 -163 -185 -40 -14 -184
-17 -248 -5 l-42 7 -37 -115 c-20 -64 -34 -119 -30 -122 3 -3 27 0 53 7 26 6
86 14 133 17 113 7 185 -12 229 -62 28 -32 31 -43 31 -98 0 -187 -176 -308
-450 -310 -211 -2 -354 98 -391 273 -35 166 74 589 240 936 80 166 129 240
203 310 61 58 108 85 188 108 81 22 102 24 250 22 111 -2 143 -6 180 -23z
m920 5 c122 -23 218 -95 241 -182 27 -99 -14 -267 -79 -329 -91 -87 -290 -96
-333 -15 -11 20 -9 52 7 149 7 45 -14 64 -71 63 -111 -2 -189 -120 -320 -481
-96 -263 -116 -404 -65 -445 51 -41 157 -7 215 69 35 46 79 148 70 163 -3 4
-20 11 -39 14 -83 16 -108 94 -62 191 43 90 103 129 219 141 172 18 274 -38
290 -160 15 -108 -48 -324 -135 -467 -121 -198 -295 -314 -511 -341 -163 -20
-298 22 -388 120 -38 41 -54 70 -70 124 -54 176 11 504 170 858 129 287 268
443 454 507 114 40 266 48 407 21z m-1972 -12 c16 -8 35 -29 42 -46 43 -104
-22 -290 -304 -877 -64 -133 -116 -243 -116 -245 0 -2 43 -2 95 0 161 6 224
-41 211 -155 -23 -193 -201 -304 -465 -291 -106 6 -178 34 -226 90 -67 79 -70
190 -10 424 80 313 327 878 443 1015 81 95 235 134 330 85z m3123 -4 c244 -95
268 -393 77 -932 -48 -137 -171 -378 -230 -452 -135 -168 -259 -228 -473 -229
-273 -1 -405 115 -405 355 0 192 65 446 199 776 118 291 261 445 457 495 90
22 302 15 375 -13z"/>
<path d="M4135 3070 c-11 -4 -30 -19 -42 -32 -70 -75 -276 -625 -299 -796 -5
-39 -2 -52 16 -74 17 -23 30 -28 62 -28 91 0 160 126 298 540 95 284 106 359
56 392 -14 10 -66 9 -91 -2z"/>
</g>
</svg>
